PathFileType	4	(X/Y/Z)	T1_P2_NoVision_NoMovement_2_0-733.trc
DataRate	CameraRate	NumFrames	NumMarkers	Units	OrigDataRate	OrigDataStartFrame	OrigNumFrames
60	60	7	27	m	60	549	733
Frame#	Time	RHip			RKnee			RAnkle			RBigToe			RSmallToe			RHeel			LHip			LKnee			LAnkle			LBigToe			LSmallToe			LHeel			Neck			Head			Nose			RShoulder			RElbow			RWrist			RThumb			RIndex			RPinky			LShoulder			LElbow			LWrist			LThumb			LIndex			LPinky		
		X1	Y1	Z1	X2	Y2	Z2	X3	Y3	Z3	X4	Y4	Z4	X5	Y5	Z5	X6	Y6	Z6	X7	Y7	Z7	X8	Y8	Z8	X9	Y9	Z9	X10	Y10	Z10	X11	Y11	Z11	X12	Y12	Z12	X13	Y13	Z13	X14	Y14	Z14	X15	Y15	Z15	X16	Y16	Z16	X17	Y17	Z17	X18	Y18	Z18	X19	Y19	Z19	X20	Y20	Z20	X21	Y21	Z21	X22	Y22	Z22	X23	Y23	Z23	X24	Y24	Z24	X25	Y25	Z25	X26	Y26	Z26	X27	Y27	Z27
550	9.166666666666666	466.8637718898861	3622.937260966561	524.4352244620632	869.9989618205869	3687.9825517600766	548.8538855317751	1250.5095991059816	3751.309879561086	619.4788015981944	1317.792162023572	3609.9386391957523	555.7352340709103	1309.9607686755446	3672.8805310565085	520.7175611853738	1280.9453168325608	3730.2922856991663	626.7636415864712	459.9940160211454	3490.78502847709	718.7570047882592	871.9301875561766	3553.3659999192932	740.017940672605	1238.7848718844311	3600.434181564715	722.8130056320161	1311.7031410007637	3508.7281136478055	674.6893601229797	1271.4762030379973	3452.0686092416445	715.0306465649086	1267.3472287008142	3602.4641562188335	704.2039740477253	-118.1007164432459	3522.6163699398317	622.5576955049415	-366.8967788407455	3471.193640141304	595.1269478534257	-229.94250517210082	3407.752322017759	556.5875457249406	-31.830193008361263	3654.0302400048963	511.64647385072834	208.50101059389576	3631.2010270982837	418.30844042594276	367.5531264481241	3450.311637080706	475.2743656649446	431.798752898013	3431.1432498638524	566.171815885897	446.87607341173515	3420.8384377697043	586.8581896317845	472.6232381443525	3393.6097898882745	550.5558531868375	-26.2110146134863	3488.920780463104	768.898431514383	226.59698719232733	3353.1879112392526	729.9897196869208	377.6806949812578	3389.2740224853405	588.6170291929357	425.6941135986099	3409.757167726853	493.1050538784808	463.1555868497248	3439.547246279437	499.7356545138191	481.7778575468006	3382.498013532293	538.9135838110752
551	9.183333333333334	466.7338589156079	3622.4161715666974	524.1700005303256	859.516402736903	3670.006211718079	534.4256499317756	1244.5173386571885	3748.9292719648	617.4358205820467	1317.9617535988475	3610.240935539923	555.907317002718	1316.6308300937403	3677.228433429878	521.7532580549979	1281.20401315789	3732.963648555221	622.455720757744	460.05267754511056	3490.4150019475437	718.6030856456565	877.196721209324	3555.0579654028825	741.168568182047	1239.0159091042062	3600.000340168171	722.4440204830036	1310.1939961323994	3491.556442345117	669.6052780743089	1270.6476144518197	3441.533790262496	702.9523635863508	1267.6569955484117	3601.8398211800563	703.6409487073763	-118.01781327737409	3522.6346665338683	622.6080481948627	-367.7270151396521	3485.220847449423	607.7269015600905	-229.8780855724612	3407.762127193426	556.6845195250866	-31.77621810722929	3654.035260798582	511.6604130813714	208.5116396797341	3631.1107123622687	418.29673774723295	370.39121739185146	3464.4811161219272	486.68385996723055	435.6102176328207	3426.0573705456836	563.8016099577892	446.9857271962868	3420.718594761427	586.8212684986238	472.79845080141416	3393.995975032428	550.7266257367068	-22.00158168710531	3485.2557542377403	766.8298900921985	226.53077327934753	3353.2373815232936	730.0320660898149	377.6950062439473	3389.1508095037757	588.535048899504	425.99325309079114	3410.372016065937	493.5403299289287	458.12650939509655	3434.620194800693	502.9665305016905	479.8362333569699	3392.5781693827685	549.5232277653081
552	9.2	466.5590788511261	3622.2562160456023	523.9713307379674	859.5921065881961	3670.7977266635567	534.292041752918	1250.6210101600734	3752.635727537454	618.1408769434448	1317.8864991261285	3609.923345979714	555.8832279026647	1303.077269020497	3653.7759912163697	514.6287860539187	1286.7927285572543	3733.9530352616666	627.3312756815959	460.5101538333641	3490.7051423879175	718.7052220010135	869.2935104329854	3559.094901648773	742.589841809187	1243.002965240006	3609.136004763378	726.0160801018568	1302.6244510322	3471.229357813725	663.6222445482127	1270.3949968170818	3441.477599896907	702.987146934889	1267.349047553892	3602.6159417932035	704.2167721565744	-118.0622660894146	3522.706344878653	622.6161574584067	-366.82922700237157	3471.011715242846	595.0635518323768	-229.82608514381388	3407.7446304394966	556.6115574485267	-31.864525865745012	3655.533588278946	507.3275451055689	208.6324238010174	3631.0172917144764	418.237243154985	367.6370388831329	3450.4560353094284	475.347388143648	439.1899320145826	3439.7277597158504	572.7263069691741	450.274389853301	3437.954472019722	591.2837484060498	476.47132750985986	3389.9938380905623	548.6561058032103	-21.99369259075936	3485.173001671323	766.7572108678369	230.64396526640303	3354.407329891628	730.7122481789346	377.65131521423484	3389.1388074657257	588.5265682866425	429.2111081766434	3407.992643699876	492.3252039369036	458.1008887544547	3435.5869428279334	503.85072120845035	479.78210595819394	3392.520402374628	549.5938341468366
553	9.216666666666667	462.65749113303707	3627.789461303212	526.4774045207882	869.3483694335036	3669.9365550496773	539.339864822657	1262.612711563948	3757.2706471984	621.8654335376827	1314.9696229601054	3595.605822932773	544.0124201454936	1314.3535783728062	3656.9416025295895	517.4708695382069	1287.5467801695072	3737.200942913241	623.4962627762266	463.48343628240815	3510.8095197863117	724.8282893977083	877.335836592108	3555.5128277827052	741.226882439492	1245.3761381417812	3604.4161575871353	723.5366273383855	1315.9886094763538	3493.3326794462637	670.8901757238447	1277.690023850984	3455.74710675644	716.0351140408707	1267.6491474632494	3602.226402892834	703.8810352140704	-117.97619951057132	3522.6366915416447	622.5121070492266	-362.28181092200435	3467.475003758204	593.056528967458	-225.25599049778148	3403.7149620841287	554.4560885254225	-31.856439785132608	3655.117144801286	507.09068930805415	208.41489795826655	3630.831070619606	418.09014017785415	370.2492691473012	3464.5699779649613	486.6676737326405	433.8288769957878	3413.678550958454	558.8626065106829	452.8553873351901	3422.340979884742	587.4374377979129	471.09644084577445	3408.1010112901286	562.6355086238809	-21.947478038393996	3485.165945321654	766.7886838890863	230.5707442038709	3355.92076776464	725.8083385392355	377.60153646972265	3389.007070939387	588.4979771627999	426.1715011223453	3410.916193238419	493.9958617276141	457.89922839694697	3436.847823412033	499.1759549071302	479.8876698359858	3392.92218856148	549.6109379438809
554	9.233333333333333	466.4342635847313	3622.9615270393456	523.9621757657642	864.0235643048542	3667.560136963089	537.6808841242866	1265.2937528233185	3751.089706530856	618.6547853046527	1322.8390388838761	3611.451467480636	557.2657961144752	1309.0394537493369	3655.791941761619	516.1132264833609	1287.4095240020958	3736.163276054108	622.7101598787099	463.48335787407774	3510.9932803465767	724.8623589010924	877.3584738452793	3555.465860387536	741.2326509977327	1243.0169069890487	3609.405540363807	726.1875349179443	1302.9039168400964	3471.921576583429	663.7278638914254	1270.5991637581349	3441.703580486377	703.2224109345235	1267.772326028845	3602.0812593904243	703.7587059916576	-118.03836007968006	3522.689395303211	622.5413877951705	-362.3568981289191	3467.5008752057975	593.1216285096735	-225.28050191917805	3403.736888391942	554.4275198312706	-31.86856072068831	3655.094982389867	507.0205949366858	213.42587791917487	3632.7124497955265	418.89064104990945	370.46289399083724	3464.770862684286	486.86796229904155	436.70669331068837	3425.34885407039	563.3929644708579	447.41846849677154	3420.2241163767626	586.4107361786674	471.183140276547	3408.0262628104606	562.7303626756585	-27.034386641174805	3474.144294919531	755.051747790745	226.47134965494377	3353.0741440652514	730.0074965561718	377.6357943493306	3389.283435842844	588.7650526052977	426.2063935962389	3411.116146921742	494.21880500505694	465.30969403202334	3451.8711843579817	511.84854797456114	479.86055215735536	3393.312713198816	549.9256238486781
555	9.25	471.32576242827037	3624.462959295466	524.9411139502532	858.9044454619066	3650.483797955125	529.9901317942791	1265.2668199302418	3750.840097086327	618.5200854821052	1310.244663924033	3594.5089620792696	542.6510838587607	1308.5188709699362	3654.970639385889	515.8285436924406	1287.518196602406	3735.882854544493	622.4455701931462	463.56109112357217	3510.7727235553366	724.7842274579718	877.6438125872164	3555.4605916353244	741.3017343733559	1243.0634787267024	3609.179852959268	726.1295052839226	1302.7952249968307	3471.5723953743536	663.792172654567	1277.4877241636498	3455.435172258699	715.917349747004	1267.790903464155	3601.9376182683714	703.6759963853683	-118.0664199415858	3522.73394148984	622.5552363052242	-362.3045062710827	3467.391364270989	593.0302004950931	-229.83981577618619	3407.2290459449164	556.3696315898417	-31.868049886513326	3655.397642049698	507.1593224821689	208.51402798117624	3630.8569437904457	418.10929121792924	365.49967776948233	3460.7024851592296	485.33138417990705	433.05378352520734	3409.4462195166084	550.361392437337	447.2523597213145	3419.933069243719	586.1407855504577	470.9577880930527	3407.95504050282	562.6772582988688	-27.053729011244066	3474.192743596017	755.1031282167692	228.41930179311737	3366.271980481909	742.8497827576533	377.6767786078	3389.0333257398506	588.6799569596878	425.85371584009306	3410.344258322558	493.7975953526143	457.63165451470036	3437.1494482254425	499.36602890897115	476.38222107046795	3379.2942065493075	537.748514205307
556	9.266666666666667	466.43421226002715	3622.320802352276	523.8622590013471	862.3420972620045	3644.87792699992	527.509911211668	1259.2279964279605	3747.1239292699915	617.9648685182805	1322.6649912559217	3611.5893932350614	557.2428342852079	1308.440767647439	3655.056101441366	515.9651944746345	1281.143489759805	3729.818229808795	626.4159743614265	463.2627803048998	3510.618372595264	724.6396691943331	877.7370200753381	3555.601877119208	741.5104524352193	1243.0441485647689	3609.181340853415	726.2610259005218	1316.072233159642	3493.5551175566534	671.0612465453783	1277.6161389153854	3455.752801132637	716.1404359300358	1267.6697244635502	3602.130347717397	703.9787421466825	-118.07092587029483	3522.8462833335925	622.6418731534491	-362.33794241944514	3467.461528007503	593.0573359845924	-225.27013518156838	3403.6177852250553	554.4060190677438	-31.97475018631367	3655.2984627038377	507.28414721202836	208.35291883917003	3631.133395038397	418.1750838493423	365.3766824392454	3460.5569432604852	485.2027437225548	428.94375303105306	3414.725260110243	552.9526275096874	447.15668343316014	3419.959195820301	586.1219492955069	466.47867228301084	3403.8969547858464	561.3146125138992	-27.086134673817845	3474.3357360233517	755.1718666333102	226.42593509505528	3352.91455167793	730.0145912524403	377.60204909977233	3388.8138456574734	588.5667251605295	425.8842412605279	3410.7981026402936	493.88023762897456	457.4697594399151	3437.542487698179	499.50672976827076	476.31707952829976	3379.1409266198093	537.6937304848786
